<svg xmlns="http://www.w3.org/2000/svg" width="1280" height="720" viewBox="0 0 1280 720" role="img" aria-labelledby="title desc">
<title id="title">InsureOps insurance operations dashboard</title><desc id="desc">Stylized portfolio artwork showing the InsureOps dashboard with navigation, operational KPIs, recent claims, and product analytics.</desc>
<defs><linearGradient id="bg" x1="0" y1="0" x2="1" y2="1"><stop stop-color="#081525"/><stop offset="1" stop-color="#17365d"/></linearGradient><linearGradient id="blue" x1="0" y1="0" x2="1" y2="1"><stop stop-color="#2563eb"/><stop offset="1" stop-color="#60a5fa"/></linearGradient><filter id="shadow"><feDropShadow dx="0" dy="18" stdDeviation="24" flood-opacity=".25"/></filter></defs>
<rect width="1280" height="720" fill="url(#bg)"/><circle cx="1110" cy="80" r="260" fill="#3b82f6" opacity=".09"/><circle cx="150" cy="670" r="300" fill="#60a5fa" opacity=".06"/>
<g transform="translate(62 58)"><path d="M32 0 62 12v24c0 25-14 43-30 52C16 79 2 61 2 36V12Z" fill="url(#blue)"/><path d="M32 12 50 19v17c0 16-8 28-18 35-10-7-18-19-18-35V19Z" fill="#dbeafe" opacity=".5"/><text x="82" y="42" fill="#fff" font-family="Arial,sans-serif" font-size="38" font-weight="700">Insure<tspan fill="#60a5fa">Ops</tspan></text><text x="4" y="132" fill="#dbeafe" font-family="Arial,sans-serif" font-size="22" font-weight="600">INSURANCE OPERATIONS PLATFORM</text><text x="4" y="174" fill="#93c5fd" font-family="Arial,sans-serif" font-size="16">C# · .NET 8 · Blazor · ASP.NET Core</text></g>
<g transform="translate(365 78)" filter="url(#shadow)"><rect width="850" height="560" rx="24" fill="#f8fafc"/><rect width="190" height="560" rx="24" fill="#0f1e31"/><rect x="166" width="24" height="560" fill="#0f1e31"/><text x="28" y="48" fill="#fff" font-family="Arial,sans-serif" font-size="22" font-weight="700">Insure<tspan fill="#60a5fa">Ops</tspan></text>
<g font-family="Arial,sans-serif" font-size="14"><rect x="18" y="78" width="154" height="42" rx="9" fill="#2563eb"/><text x="48" y="104" fill="#fff">Overview</text><text x="48" y="158" fill="#cbd5e1">Policies</text><text x="48" y="206" fill="#cbd5e1">Claims</text><text x="48" y="254" fill="#cbd5e1">Customers</text><text x="48" y="302" fill="#cbd5e1">Analytics</text></g>
<text x="225" y="55" fill="#0f172a" font-family="Arial,sans-serif" font-size="26" font-weight="700">Operations overview</text><text x="225" y="82" fill="#64748b" font-family="Arial,sans-serif" font-size="13">Portfolio health and active workload</text>
<g font-family="Arial,sans-serif"><g transform="translate(225 112)"><rect width="135" height="88" rx="12" fill="#fff" stroke="#e2e8f0"/><text x="14" y="25" fill="#64748b" font-size="11">ACTIVE POLICIES</text><text x="14" y="58" fill="#0f172a" font-size="25" font-weight="700">142</text></g><g transform="translate(375 112)"><rect width="135" height="88" rx="12" fill="#fff" stroke="#e2e8f0"/><text x="14" y="25" fill="#64748b" font-size="11">WRITTEN PREMIUM</text><text x="14" y="58" fill="#0f172a" font-size="23" font-weight="700">$1.28M</text></g><g transform="translate(525 112)"><rect width="135" height="88" rx="12" fill="#fff" stroke="#e2e8f0"/><text x="14" y="25" fill="#64748b" font-size="11">OPEN CLAIMS</text><text x="14" y="58" fill="#0f172a" font-size="25" font-weight="700">8</text></g><g transform="translate(675 112)"><rect width="135" height="88" rx="12" fill="#fff" stroke="#e2e8f0"/><text x="14" y="25" fill="#64748b" font-size="11">CLAIM EXPOSURE</text><text x="14" y="58" fill="#0f172a" font-size="22" font-weight="700">$320K</text></g></g>
<g transform="translate(225 225)"><rect width="380" height="278" rx="14" fill="#fff" stroke="#e2e8f0"/><text x="18" y="34" fill="#0f172a" font-family="Arial,sans-serif" font-size="16" font-weight="700">Recent claims</text><g font-family="Arial,sans-serif" font-size="11" fill="#64748b"><text x="18" y="68">CLAIM</text><text x="112" y="68">POLICY</text><text x="205" y="68">STATUS</text><text x="304" y="68">EXPOSURE</text></g><g stroke="#e2e8f0"><path d="M18 82H362M18 126H362M18 170H362M18 214H362"/></g><g font-family="Arial,sans-serif" font-size="12" fill="#334155"><text x="18" y="108">CLM-10482</text><text x="112" y="108">POL-48392</text><text x="205" y="108" fill="#2563eb">Investigating</text><text x="304" y="108">$42,850</text><text x="18" y="152">CLM-10481</text><text x="112" y="152">POL-22910</text><text x="205" y="152" fill="#b45309">Open</text><text x="304" y="152">$18,200</text><text x="18" y="196">CLM-10480</text><text x="112" y="196">POL-77102</text><text x="205" y="196" fill="#b45309">Open</text><text x="304" y="196">$12,450</text><text x="18" y="240">CLM-10479</text><text x="112" y="240">POL-63310</text><text x="205" y="240" fill="#047857">Closed</text><text x="304" y="240">$0</text></g></g>
<g transform="translate(625 225)"><rect width="185" height="278" rx="14" fill="#fff" stroke="#e2e8f0"/><text x="18" y="34" fill="#0f172a" font-family="Arial,sans-serif" font-size="16" font-weight="700">Portfolio mix</text><circle cx="92" cy="126" r="58" fill="none" stroke="#dbeafe" stroke-width="24"/><path d="M92 68a58 58 0 0 1 54 79" fill="none" stroke="#2563eb" stroke-width="24"/><path d="M146 147a58 58 0 0 1-72 34" fill="none" stroke="#60a5fa" stroke-width="24"/><text x="92" y="122" text-anchor="middle" fill="#0f172a" font-family="Arial,sans-serif" font-size="16" font-weight="700">5 products</text><text x="92" y="143" text-anchor="middle" fill="#64748b" font-family="Arial,sans-serif" font-size="10">active portfolio</text><g font-family="Arial,sans-serif" font-size="11" fill="#475569"><circle cx="28" cy="220" r="5" fill="#2563eb"/><text x="40" y="224">Auto</text><circle cx="28" cy="246" r="5" fill="#60a5fa"/><text x="40" y="250">Homeowners + others</text></g></g></g>
<g transform="translate(62 276)" font-family="Arial,sans-serif"><text fill="#fff" font-size="31" font-weight="700">Operational software,</text><text y="40" fill="#fff" font-size="31" font-weight="700">not a static mockup.</text><text y="92" fill="#bfdbfe" font-size="17">Typed services · recoverable lifecycle</text><text y="122" fill="#bfdbfe" font-size="17">Responsive workflows · automated testing</text><rect y="166" width="214" height="48" rx="12" fill="#2563eb"/><text x="107" y="197" text-anchor="middle" fill="#fff" font-size="15" font-weight="700">VIEW CASE STUDY  →</text></g>
</svg>